<mxfile host="Electron" modified="2025-08-04T22:33:53.728Z" agent="Mozilla/5.0 (Macintosh; Intel Mac OS X 10_15_7) AppleWebKit/537.36 (KHTML, like Gecko) draw.io/24.4.8 Chrome/124.0.6367.207 Electron/30.0.6 Safari/537.36" etag="NtAIsz49-0GtDNkYuj45" version="24.4.8" type="device">
  <diagram name="Страница — 1" id="n07R6JBz6q2I3kF9f_Cc">
    <mxGraphModel dx="1283" dy="929" grid="1" gridSize="10" guides="1" tooltips="1" connect="1" arrows="1" fold="1" page="1" pageScale="1" pageWidth="827" pageHeight="1169" math="0" shadow="0">
      <root>
        <mxCell id="0" />
        <mxCell id="1" parent="0" />
        <object placeholders="1" c4Name="" c4Type="SystemScopeBoundary" c4Application="Database" label="&lt;font style=&quot;font-size: 16px;&quot;&gt;&lt;b style=&quot;font-size: 16px;&quot;&gt;&lt;div style=&quot;text-align: left; font-size: 16px;&quot;&gt;%c4Name%&lt;/div&gt;&lt;/b&gt;&lt;/font&gt;&lt;div style=&quot;text-align: left; font-size: 16px;&quot;&gt;[%c4Application%]&lt;/div&gt;" id="OCxoRoKDdkwBVdzbVea--6">
          <mxCell style="rounded=1;fontSize=16;whiteSpace=wrap;html=1;dashed=1;arcSize=20;fillColor=#ffe6cc;strokeColor=#D79B00;labelBackgroundColor=none;align=left;verticalAlign=bottom;labelBorderColor=none;spacingTop=0;spacing=10;dashPattern=8 4;metaEdit=1;rotatable=0;perimeter=rectanglePerimeter;labelPadding=0;allowArrows=0;connectable=0;expand=0;recursiveResize=0;editable=1;pointerEvents=0;absoluteArcSize=1;points=[[0.25,0,0],[0.5,0,0],[0.75,0,0],[1,0.25,0],[1,0.5,0],[1,0.75,0],[0.75,1,0],[0.5,1,0],[0.25,1,0],[0,0.75,0],[0,0.5,0],[0,0.25,0]];sketch=1;hachureGap=4;jiggle=2;curveFitting=1;fontFamily=Architects Daughter;fontSource=https%3A%2F%2Ffonts.googleapis.com%2Fcss%3Ffamily%3DArchitects%2BDaughter;fontColor=#D79B00;" parent="1" vertex="1">
            <mxGeometry x="10" y="280" width="470" height="210" as="geometry" />
          </mxCell>
        </object>
        <mxCell id="BjKTdqrIx7qduUJQUpM8-1" value="Order Service" style="rounded=0;whiteSpace=wrap;html=1;sketch=1;hachureGap=4;jiggle=2;curveFitting=1;fontFamily=Architects Daughter;fontSource=https%3A%2F%2Ffonts.googleapis.com%2Fcss%3Ffamily%3DArchitects%2BDaughter;fillColor=#d5e8d4;strokeColor=#82B366;fontColor=#82B366;strokeWidth=2;fontSize=16;" parent="1" vertex="1">
          <mxGeometry x="160" y="40" width="160" height="120" as="geometry" />
        </mxCell>
        <mxCell id="BjKTdqrIx7qduUJQUpM8-2" value="Message&lt;div style=&quot;font-size: 16px;&quot;&gt;Relay&lt;/div&gt;" style="rounded=0;whiteSpace=wrap;html=1;sketch=1;hachureGap=4;jiggle=2;curveFitting=1;fontFamily=Architects Daughter;fontSource=https%3A%2F%2Ffonts.googleapis.com%2Fcss%3Ffamily%3DArchitects%2BDaughter;fillColor=#e1d5e7;strokeColor=#9673A6;strokeWidth=2;fontSize=16;fontColor=#9673A6;" parent="1" vertex="1">
          <mxGeometry x="670" y="280" width="120" height="160" as="geometry" />
        </mxCell>
        <mxCell id="BjKTdqrIx7qduUJQUpM8-3" value="Message&lt;br style=&quot;font-size: 16px;&quot;&gt;Broker" style="rounded=0;whiteSpace=wrap;html=1;sketch=1;hachureGap=4;jiggle=2;curveFitting=1;fontFamily=Architects Daughter;fontSource=https%3A%2F%2Ffonts.googleapis.com%2Fcss%3Ffamily%3DArchitects%2BDaughter;fillColor=#dae8fc;strokeColor=#6C8EBF;strokeWidth=2;fontColor=#6C8EBF;fontSize=16;" parent="1" vertex="1">
          <mxGeometry x="870" y="280" width="120" height="160" as="geometry" />
        </mxCell>
        <object placeholders="1" c4Type="Relationship" c4Description="Publish" label="&lt;div style=&quot;text-align: left; font-size: 13px;&quot;&gt;&lt;div style=&quot;text-align: center; font-size: 13px;&quot;&gt;&lt;b style=&quot;font-size: 13px;&quot;&gt;%c4Description%&lt;/b&gt;&lt;/div&gt;&lt;/div&gt;" id="OCxoRoKDdkwBVdzbVea--1">
          <mxCell style="endArrow=blockThin;html=1;fontSize=13;fontColor=#000000;strokeWidth=1;endFill=1;strokeColor=#000000;elbow=vertical;metaEdit=1;endSize=14;startSize=14;jumpStyle=arc;jumpSize=16;rounded=0;edgeStyle=orthogonalEdgeStyle;sketch=1;hachureGap=4;jiggle=2;curveFitting=1;fontFamily=Architects Daughter;fontSource=https%3A%2F%2Ffonts.googleapis.com%2Fcss%3Ffamily%3DArchitects%2BDaughter;exitX=0.5;exitY=1;exitDx=0;exitDy=0;entryX=0.5;entryY=1;entryDx=0;entryDy=0;curved=1;" parent="1" source="BjKTdqrIx7qduUJQUpM8-2" target="BjKTdqrIx7qduUJQUpM8-3" edge="1">
            <mxGeometry width="240" relative="1" as="geometry">
              <mxPoint x="850" y="600" as="sourcePoint" />
              <mxPoint x="850" y="600" as="targetPoint" />
              <Array as="points">
                <mxPoint x="730" y="480" />
                <mxPoint x="930" y="480" />
              </Array>
            </mxGeometry>
          </mxCell>
        </object>
        <mxCell id="OCxoRoKDdkwBVdzbVea--3" value="Outbox Table" style="rounded=0;whiteSpace=wrap;html=1;sketch=1;hachureGap=4;jiggle=2;curveFitting=1;fontFamily=Architects Daughter;fontSource=https%3A%2F%2Ffonts.googleapis.com%2Fcss%3Ffamily%3DArchitects%2BDaughter;fillColor=#ffe6cc;strokeColor=#D79B00;strokeWidth=2;fontSize=16;fontColor=#D79B00;" parent="1" vertex="1">
          <mxGeometry x="284" y="320" width="116" height="80" as="geometry" />
        </mxCell>
        <mxCell id="OCxoRoKDdkwBVdzbVea--4" value="Order Table" style="rounded=0;whiteSpace=wrap;html=1;sketch=1;hachureGap=4;jiggle=2;curveFitting=1;fontFamily=Architects Daughter;fontSource=https%3A%2F%2Ffonts.googleapis.com%2Fcss%3Ffamily%3DArchitects%2BDaughter;fillColor=#ffe6cc;strokeColor=#D79B00;strokeWidth=2;fontSize=16;fontColor=#D79B00;" parent="1" vertex="1">
          <mxGeometry x="80" y="320" width="120" height="80" as="geometry" />
        </mxCell>
        <object placeholders="1" c4Type="Relationship" c4Description="INSERT&#xa;UPDATE&#xa;DELETE" label="&lt;div style=&quot;text-align: left; font-size: 13px;&quot;&gt;&lt;div style=&quot;text-align: center; font-size: 13px;&quot;&gt;&lt;b style=&quot;font-size: 13px;&quot;&gt;%c4Description%&lt;/b&gt;&lt;/div&gt;&lt;/div&gt;" id="65T66_vFxX81rGwkDZX5-3">
          <mxCell style="endArrow=blockThin;html=1;fontSize=13;fontColor=#000000;strokeWidth=1;endFill=1;strokeColor=#000000;elbow=vertical;metaEdit=1;endSize=14;startSize=14;jumpStyle=arc;jumpSize=16;rounded=0;edgeStyle=orthogonalEdgeStyle;sketch=1;hachureGap=4;jiggle=2;curveFitting=1;fontFamily=Architects Daughter;fontSource=https%3A%2F%2Ffonts.googleapis.com%2Fcss%3Ffamily%3DArchitects%2BDaughter;exitX=0.5;exitY=1;exitDx=0;exitDy=0;entryX=0.5;entryY=0;entryDx=0;entryDy=0;curved=1;" parent="1" source="BjKTdqrIx7qduUJQUpM8-1" target="OCxoRoKDdkwBVdzbVea--4" edge="1">
            <mxGeometry width="240" relative="1" as="geometry">
              <mxPoint x="280" y="520" as="sourcePoint" />
              <mxPoint x="520" y="520" as="targetPoint" />
              <mxPoint as="offset" />
            </mxGeometry>
          </mxCell>
        </object>
        <object placeholders="1" c4Type="Relationship" c4Description="INSERT" label="&lt;div style=&quot;text-align: left; font-size: 13px;&quot;&gt;&lt;div style=&quot;text-align: center; font-size: 13px;&quot;&gt;&lt;b style=&quot;font-size: 13px;&quot;&gt;%c4Description%&lt;/b&gt;&lt;/div&gt;&lt;/div&gt;" id="65T66_vFxX81rGwkDZX5-7">
          <mxCell style="endArrow=blockThin;html=1;fontSize=13;fontColor=#000000;strokeWidth=1;endFill=1;strokeColor=#000000;elbow=vertical;metaEdit=1;endSize=14;startSize=14;jumpStyle=arc;jumpSize=16;rounded=0;edgeStyle=orthogonalEdgeStyle;sketch=1;hachureGap=4;jiggle=2;curveFitting=1;fontFamily=Architects Daughter;fontSource=https%3A%2F%2Ffonts.googleapis.com%2Fcss%3Ffamily%3DArchitects%2BDaughter;exitX=0.5;exitY=1;exitDx=0;exitDy=0;entryX=0.5;entryY=0;entryDx=0;entryDy=0;curved=1;" parent="1" source="BjKTdqrIx7qduUJQUpM8-1" target="OCxoRoKDdkwBVdzbVea--3" edge="1">
            <mxGeometry width="240" relative="1" as="geometry">
              <mxPoint x="460" y="550" as="sourcePoint" />
              <mxPoint x="700" y="550" as="targetPoint" />
            </mxGeometry>
          </mxCell>
        </object>
        <object placeholders="1" c4Type="Relationship" c4Description="Read Outbox Table" label="&lt;div style=&quot;text-align: left; font-size: 13px;&quot;&gt;&lt;div style=&quot;text-align: center; font-size: 13px;&quot;&gt;&lt;b style=&quot;font-size: 13px;&quot;&gt;%c4Description%&lt;/b&gt;&lt;/div&gt;&lt;/div&gt;" id="65T66_vFxX81rGwkDZX5-8">
          <mxCell style="endArrow=blockThin;html=1;fontSize=13;fontColor=#000000;strokeWidth=1;endFill=1;strokeColor=#000000;elbow=vertical;metaEdit=1;endSize=14;startSize=14;jumpStyle=arc;jumpSize=16;rounded=0;edgeStyle=orthogonalEdgeStyle;sketch=1;hachureGap=4;jiggle=2;curveFitting=1;fontFamily=Architects Daughter;fontSource=https%3A%2F%2Ffonts.googleapis.com%2Fcss%3Ffamily%3DArchitects%2BDaughter;exitX=0;exitY=0.5;exitDx=0;exitDy=0;" parent="1" source="BjKTdqrIx7qduUJQUpM8-2" edge="1">
            <mxGeometry x="-0.0025" width="240" relative="1" as="geometry">
              <mxPoint x="560" y="590" as="sourcePoint" />
              <mxPoint x="480" y="360" as="targetPoint" />
              <mxPoint as="offset" />
            </mxGeometry>
          </mxCell>
        </object>
        <object placeholders="1" c4Name="" c4Type="ContainerScopeBoundary" c4Application="Transaction" label="&lt;font style=&quot;font-size: 13px;&quot;&gt;&lt;b style=&quot;font-size: 13px;&quot;&gt;&lt;div style=&quot;text-align: left; font-size: 13px;&quot;&gt;%c4Name%&lt;/div&gt;&lt;/b&gt;&lt;/font&gt;&lt;div style=&quot;text-align: left; font-size: 13px;&quot;&gt;[%c4Application%]&lt;/div&gt;" id="65T66_vFxX81rGwkDZX5-2">
          <mxCell style="rounded=1;fontSize=13;whiteSpace=wrap;html=1;dashed=1;arcSize=20;fillColor=none;strokeColor=#000000;labelBackgroundColor=none;align=left;verticalAlign=bottom;labelBorderColor=none;spacingTop=0;spacing=10;dashPattern=8 4;metaEdit=1;rotatable=0;perimeter=rectanglePerimeter;labelPadding=0;allowArrows=0;connectable=0;expand=0;recursiveResize=0;editable=1;pointerEvents=0;absoluteArcSize=1;points=[[0.25,0,0],[0.5,0,0],[0.75,0,0],[1,0.25,0],[1,0.5,0],[1,0.75,0],[0.75,1,0],[0.5,1,0],[0.25,1,0],[0,0.75,0],[0,0.5,0],[0,0.25,0]];sketch=1;hachureGap=4;jiggle=2;curveFitting=1;fontFamily=Architects Daughter;fontSource=https%3A%2F%2Ffonts.googleapis.com%2Fcss%3Ffamily%3DArchitects%2BDaughter;fontColor=#000000;" parent="1" vertex="1">
            <mxGeometry x="50" y="290" width="390" height="150" as="geometry" />
          </mxCell>
        </object>
      </root>
    </mxGraphModel>
  </diagram>
</mxfile>
